<svg xmlns="http://www.w3.org/2000/svg" viewBox="0 0 1200 760" role="img" aria-labelledby="title desc">
  <title id="title">AI learning platform cover</title>
  <desc id="desc">A calm interface-like visual for an AI personalized learning notes platform.</desc>
  <rect width="1200" height="760" fill="#f5f1e8"/>
  <rect x="80" y="74" width="1040" height="612" rx="28" fill="#18382d"/>
  <rect x="130" y="126" width="300" height="508" rx="20" fill="#f7f2e7"/>
  <rect x="470" y="126" width="600" height="232" rx="20" fill="#fffaf0"/>
  <rect x="470" y="398" width="278" height="236" rx="20" fill="#d8eadf"/>
  <rect x="792" y="398" width="278" height="236" rx="20" fill="#f1d388"/>
  <circle cx="202" cy="198" r="42" fill="#d7a84a"/>
  <rect x="258" y="170" width="122" height="18" rx="9" fill="#18382d"/>
  <rect x="258" y="204" width="92" height="14" rx="7" fill="#6a7d72"/>
  <rect x="170" y="294" width="220" height="18" rx="9" fill="#18382d"/>
  <rect x="170" y="338" width="172" height="14" rx="7" fill="#6a7d72"/>
  <rect x="170" y="376" width="198" height="14" rx="7" fill="#6a7d72"/>
  <rect x="170" y="414" width="134" height="14" rx="7" fill="#6a7d72"/>
  <path d="M548 286c62-118 160-118 222 0 38-62 92-80 154-34" fill="none" stroke="#18382d" stroke-width="18" stroke-linecap="round"/>
  <circle cx="550" cy="480" r="42" fill="#18382d"/>
  <circle cx="668" cy="548" r="42" fill="#18382d"/>
  <path d="M586 500l46 28" stroke="#18382d" stroke-width="16" stroke-linecap="round"/>
  <rect x="850" y="464" width="150" height="20" rx="10" fill="#18382d"/>
  <rect x="850" y="512" width="112" height="16" rx="8" fill="#6a5730"/>
  <rect x="850" y="552" width="142" height="16" rx="8" fill="#6a5730"/>
</svg>
