<svg width="1200" height="760" viewBox="0 0 1200 760" fill="none" xmlns="http://www.w3.org/2000/svg" role="img" aria-labelledby="title desc">
  <title id="title">QuantPilot AI quant research workspace</title>
  <desc id="desc">A clean product cover showing a quant research dashboard with market data, validation, evidence, and agent workflow panels.</desc>
  <rect width="1200" height="760" fill="#F5F7FA"/>
  <rect x="72" y="64" width="1056" height="632" rx="28" fill="#FFFFFF" stroke="#D8DEE8" stroke-width="2"/>
  <rect x="72" y="64" width="1056" height="70" rx="28" fill="#111827"/>
  <path d="M72 106H1128V135H72V106Z" fill="#111827"/>
  <circle cx="118" cy="99" r="10" fill="#EF4444"/>
  <circle cx="150" cy="99" r="10" fill="#F59E0B"/>
  <circle cx="182" cy="99" r="10" fill="#10B981"/>
  <text x="232" y="106" fill="#E5E7EB" font-family="Inter, Arial, sans-serif" font-size="24" font-weight="700">QuantPilot</text>
  <text x="386" y="106" fill="#9CA3AF" font-family="Inter, Arial, sans-serif" font-size="18">AI quant research workspace</text>

  <rect x="112" y="174" width="286" height="476" rx="18" fill="#F9FAFB" stroke="#E5E7EB"/>
  <text x="138" y="215" fill="#111827" font-family="Inter, Arial, sans-serif" font-size="22" font-weight="700">Run Plan</text>
  <rect x="138" y="244" width="220" height="22" rx="11" fill="#DBEAFE"/>
  <rect x="138" y="280" width="168" height="14" rx="7" fill="#CBD5E1"/>
  <rect x="138" y="308" width="210" height="14" rx="7" fill="#CBD5E1"/>
  <rect x="138" y="336" width="186" height="14" rx="7" fill="#CBD5E1"/>
  <rect x="138" y="392" width="102" height="34" rx="8" fill="#ECFDF5" stroke="#A7F3D0"/>
  <text x="158" y="415" fill="#047857" font-family="Inter, Arial, sans-serif" font-size="15" font-weight="700">data</text>
  <rect x="254" y="392" width="108" height="34" rx="8" fill="#EFF6FF" stroke="#BFDBFE"/>
  <text x="274" y="415" fill="#1D4ED8" font-family="Inter, Arial, sans-serif" font-size="15" font-weight="700">evidence</text>
  <rect x="138" y="460" width="224" height="126" rx="14" fill="#FFFFFF" stroke="#E5E7EB"/>
  <text x="160" y="494" fill="#374151" font-family="Inter, Arial, sans-serif" font-size="17" font-weight="700">Agent workflow</text>
  <path d="M164 530H332" stroke="#2563EB" stroke-width="5" stroke-linecap="round"/>
  <path d="M164 558H296" stroke="#10B981" stroke-width="5" stroke-linecap="round"/>

  <rect x="432" y="174" width="430" height="292" rx="18" fill="#FFFFFF" stroke="#E5E7EB"/>
  <text x="460" y="215" fill="#111827" font-family="Inter, Arial, sans-serif" font-size="22" font-weight="700">Market Dashboard</text>
  <rect x="460" y="248" width="98" height="52" rx="12" fill="#EEF2FF"/>
  <rect x="578" y="248" width="98" height="52" rx="12" fill="#F0FDFA"/>
  <rect x="696" y="248" width="98" height="52" rx="12" fill="#FFF7ED"/>
  <text x="482" y="281" fill="#3730A3" font-family="Inter, Arial, sans-serif" font-size="18" font-weight="700">MA20</text>
  <text x="602" y="281" fill="#0F766E" font-family="Inter, Arial, sans-serif" font-size="18" font-weight="700">PE</text>
  <text x="720" y="281" fill="#C2410C" font-family="Inter, Arial, sans-serif" font-size="18" font-weight="700">Risk</text>
  <path d="M466 408C504 360 536 374 570 332C602 294 636 340 668 316C714 282 736 358 782 322C810 300 824 292 846 284" stroke="#2563EB" stroke-width="7" stroke-linecap="round" stroke-linejoin="round"/>
  <path d="M466 390C514 418 552 392 596 420C636 446 682 404 722 432C760 458 808 424 846 438" stroke="#10B981" stroke-width="7" stroke-linecap="round" stroke-linejoin="round"/>
  <path d="M466 330H846M466 382H846M466 434H846" stroke="#E5E7EB" stroke-width="2"/>

  <rect x="432" y="494" width="430" height="156" rx="18" fill="#F9FAFB" stroke="#E5E7EB"/>
  <text x="460" y="535" fill="#111827" font-family="Inter, Arial, sans-serif" font-size="22" font-weight="700">Validation</text>
  <rect x="460" y="562" width="116" height="38" rx="19" fill="#DCFCE7"/>
  <text x="486" y="587" fill="#166534" font-family="Inter, Arial, sans-serif" font-size="16" font-weight="700">build</text>
  <rect x="594" y="562" width="116" height="38" rx="19" fill="#DCFCE7"/>
  <text x="623" y="587" fill="#166534" font-family="Inter, Arial, sans-serif" font-size="16" font-weight="700">HTTP</text>
  <rect x="728" y="562" width="96" height="38" rx="19" fill="#DBEAFE"/>
  <text x="753" y="587" fill="#1D4ED8" font-family="Inter, Arial, sans-serif" font-size="16" font-weight="700">visual</text>

  <rect x="894" y="174" width="194" height="476" rx="18" fill="#111827"/>
  <text x="922" y="215" fill="#F9FAFB" font-family="Inter, Arial, sans-serif" font-size="22" font-weight="700">Ops</text>
  <rect x="922" y="252" width="138" height="16" rx="8" fill="#34D399"/>
  <rect x="922" y="286" width="104" height="16" rx="8" fill="#60A5FA"/>
  <rect x="922" y="320" width="126" height="16" rx="8" fill="#FBBF24"/>
  <rect x="922" y="390" width="132" height="88" rx="14" fill="#1F2937"/>
  <text x="946" y="424" fill="#D1D5DB" font-family="Inter, Arial, sans-serif" font-size="15">trace</text>
  <path d="M946 448H1028" stroke="#9CA3AF" stroke-width="4" stroke-linecap="round"/>
  <rect x="922" y="512" width="132" height="88" rx="14" fill="#1F2937"/>
  <text x="946" y="546" fill="#D1D5DB" font-family="Inter, Arial, sans-serif" font-size="15">eval</text>
  <path d="M946 570H1034" stroke="#9CA3AF" stroke-width="4" stroke-linecap="round"/>
</svg>
